<?xml version="1.0" encoding="UTF-8" standalone="no"?>
<!DOCTYPE svg PUBLIC "-//W3C//DTD SVG 1.1//EN" "http://www.w3.org/Graphics/SVG/1.1/DTD/svg11.dtd">
<svg width="100%" height="100%" viewBox="0 0 296 296" version="1.1" xmlns="http://www.w3.org/2000/svg" xmlns:xlink="http://www.w3.org/1999/xlink" xml:space="preserve" xmlns:serif="http://www.serif.com/" style="fill-rule:evenodd;clip-rule:evenodd;stroke-linejoin:round;stroke-miterlimit:2;">
    <g transform="matrix(2.2533,0,0,2.2533,0.127797,68.2079)">
        <path d="M124.694,11.06C122.225,7.308 116.893,5.629 107.906,5.629L33.841,5.629L27.027,21.726L40.952,21.726L29.2,49.377L15.177,49.377L8.363,65.473L66.825,65.473L73.639,49.377L59.517,49.377L61.393,44.933L93.192,44.933C113.634,44.933 119.164,36.045 123.312,26.268C125.583,20.936 127.558,15.405 124.694,11.06ZM71.269,21.726L94.673,21.726C96.352,21.726 97.142,22.121 97.34,22.417C97.537,22.614 97.438,23.306 97.043,24.392C95.858,27.157 92.994,28.935 89.538,28.935L68.207,28.935L71.269,21.726Z" style="fill-rule:nonzero;"/>
        <path d="M107.906,8.098L35.52,8.098L30.78,19.257L44.704,19.257L30.78,51.845L16.856,51.845L12.116,63.005L65.245,63.005L69.985,51.845L55.765,51.845L59.813,42.464L93.291,42.464C112.449,42.464 117.288,34.366 121.139,25.281C124.991,16.196 127.064,8.098 107.906,8.098ZM89.538,31.305L64.554,31.305L69.689,19.257L94.673,19.257C99.117,19.257 100.895,21.528 99.315,25.281C97.636,29.033 93.982,31.305 89.538,31.305Z" style="fill-rule:nonzero;"/>
    </g>
</svg>
